<?xml version="1.0" encoding="UTF-8" standalone="no"?><!DOCTYPE svg PUBLIC "-//W3C//DTD SVG 1.1//EN" "http://www.w3.org/Graphics/SVG/1.1/DTD/svg11.dtd"><svg width="100%" height="100%" viewBox="0 0 138 30" version="1.1" xmlns="http://www.w3.org/2000/svg" xmlns:xlink="http://www.w3.org/1999/xlink" xml:space="preserve" xmlns:serif="http://www.serif.com/" style="fill-rule:evenodd;clip-rule:evenodd;stroke-linejoin:round;stroke-miterlimit:2;"><g><path d="M0.806,6.943c0,-0.211 0.012,-0.524 0.035,-0.94c0.023,-0.416 0.035,-0.7 0.035,-0.853c0,-0.059 -0.012,-0.27 -0.035,-0.633c-0.023,-0.363 -0.035,-0.68 -0.035,-0.949c0,-1.242 0.117,-1.863 0.352,-1.863c0.094,0 0.176,0.012 0.246,0.035c2.449,0 6.079,-0.029 10.89,-0.088c4.811,-0.059 8.411,-0.088 10.802,-0.088c0.598,0 0.976,0.053 1.134,0.158c0.158,0.105 0.237,0.311 0.237,0.615l0,0.492c0,0.609 0.006,1.509 0.018,2.698c0.012,1.189 0.018,2.095 0.018,2.716c0,0.609 -0.164,0.914 -0.492,0.914c-0.656,0 -1.635,-0.012 -2.936,-0.035c-1.301,-0.023 -2.279,-0.035 -2.936,-0.035l0,18.844c-0.082,0.352 -0.281,0.539 -0.598,0.562c-0.41,0 -1.008,-0.006 -1.793,-0.018c-0.785,-0.012 -1.383,-0.018 -1.793,-0.018c-0.023,0 -0.047,0.012 -0.07,0.035c-0.516,0 -1.239,-0.006 -2.171,-0.018c-0.932,-0.012 -1.626,-0.018 -2.083,-0.018l-1.055,0c-0.234,0.023 -0.574,0.035 -1.02,0.035l-0.703,-0.844c0,-1.781 0.059,-4.43 0.176,-7.945c0.117,-3.516 0.176,-6.164 0.176,-7.945c0,-0.082 -0.003,-0.217 -0.009,-0.404c-0.006,-0.188 -0.009,-0.34 -0.009,-0.457c0,-0.117 -0.009,-0.264 -0.026,-0.439c-0.018,-0.176 -0.047,-0.319 -0.088,-0.431c-0.041,-0.111 -0.091,-0.223 -0.149,-0.334c-0.059,-0.111 -0.138,-0.193 -0.237,-0.246c-0.1,-0.053 -0.22,-0.079 -0.36,-0.079l-5.027,0c-0.328,-0.094 -0.492,-0.902 -0.492,-2.426Z" style="fill:#16a34a;fill-rule:nonzero;"/><path d="M51.536,28.072c-0.258,0.258 -0.8,0.41 -1.626,0.457c-0.826,0.047 -1.843,0.035 -3.05,-0.035c-1.207,-0.07 -1.852,-0.105 -1.934,-0.105c-0.797,0 -1.371,-0.012 -1.723,-0.035l-1.758,0c-0.258,-0.082 -0.475,-0.466 -0.65,-1.151c-0.176,-0.686 -0.349,-1.67 -0.519,-2.953c-0.17,-1.283 -0.261,-1.966 -0.272,-2.048c-0.047,-1.16 -0.234,-1.925 -0.562,-2.294c-0.328,-0.369 -0.926,-0.554 -1.793,-0.554l-0.773,0l0,8.578c-0.023,0.141 -0.146,0.258 -0.369,0.352c-0.223,0.094 -0.542,0.155 -0.958,0.185c-0.416,0.029 -0.785,0.047 -1.107,0.053c-0.322,0.006 -0.747,0.003 -1.274,-0.009c-0.527,-0.012 -0.85,-0.018 -0.967,-0.018l-2.531,0c-1.43,0 -2.508,0.012 -3.234,0.035c-0.164,-0.07 -0.328,-0.152 -0.492,-0.246l0,-26.227c0,-0.328 0.469,-0.492 1.406,-0.492l15.328,0c2.66,0.07 4.685,0.703 6.073,1.898c1.389,1.195 2.083,2.883 2.083,5.063c0,2.836 -1.43,4.91 -4.289,6.223c0.527,0.164 1.002,0.393 1.424,0.686c0.422,0.293 0.773,0.606 1.055,0.94c0.281,0.334 0.527,0.735 0.738,1.204c0.211,0.469 0.375,0.908 0.492,1.318c0.117,0.41 0.22,0.896 0.308,1.459c0.088,0.562 0.149,1.049 0.185,1.459c0.035,0.41 0.079,0.899 0.132,1.468c0.053,0.568 0.097,1.017 0.132,1.345l0,1.547c0.035,0.188 0.144,0.451 0.325,0.791c0.182,0.34 0.296,0.592 0.343,0.756c0,0.234 -0.047,0.352 -0.141,0.352Zm-14.3,-18.813c0,0.565 0.005,0.984 0.014,1.257c0.009,0.273 0.061,0.631 0.155,1.074c0.094,0.443 0.235,0.758 0.424,0.947c0.396,0 0.77,-0.042 1.123,-0.127c0.353,-0.085 0.695,-0.221 1.024,-0.41c0.33,-0.188 0.591,-0.469 0.784,-0.841c0.193,-0.372 0.29,-0.817 0.29,-1.335c0,-0.292 -0.052,-0.549 -0.155,-0.77c-0.104,-0.221 -0.254,-0.398 -0.452,-0.53c-0.198,-0.132 -0.393,-0.238 -0.586,-0.318c-0.193,-0.08 -0.429,-0.137 -0.706,-0.17c-0.278,-0.033 -0.497,-0.054 -0.657,-0.064c-0.16,-0.009 -0.353,-0.014 -0.579,-0.014l-0.339,0c-0.141,0.066 -0.233,0.198 -0.276,0.396c-0.042,0.198 -0.064,0.499 -0.064,0.904Z" style="fill:#16a34a;fill-rule:nonzero;"/><path d="M50.833,28.002c0.727,-2.684 1.529,-5.408 2.408,-8.174c0.879,-2.766 1.972,-6.073 3.278,-9.923c1.307,-3.85 2.2,-6.513 2.681,-7.989c0.141,-0.234 0.234,-0.375 0.281,-0.422l2.953,0c0.691,0 1.711,-0.012 3.059,-0.035c1.348,-0.023 2.367,-0.035 3.059,-0.035l2.953,0c0.176,0 0.322,0.003 0.439,0.009c0.117,0.006 0.258,0.021 0.422,0.044c0.164,0.023 0.296,0.059 0.396,0.105c0.1,0.047 0.185,0.117 0.255,0.211c0.07,0.094 0.105,0.205 0.105,0.334l8.104,25.682c0,0.234 -0.085,0.396 -0.255,0.483c-0.17,0.088 -0.489,0.132 -0.958,0.132l-1.617,0c-0.469,0 -1.166,0.006 -2.092,0.018c-0.926,0.012 -1.623,0.018 -2.092,0.018c-0.141,0 -0.425,0.009 -0.853,0.026c-0.428,0.018 -0.788,0.023 -1.081,0.018c-0.293,-0.006 -0.618,-0.023 -0.976,-0.053c-0.357,-0.029 -0.645,-0.094 -0.861,-0.193c-0.217,-0.1 -0.354,-0.231 -0.413,-0.396l0,-1.16c-0.117,-0.586 -0.322,-1.125 -0.615,-1.617c-0.293,-0.492 -0.604,-0.738 -0.932,-0.738l-6.047,0l-0.914,3.727c-0.129,0.281 -0.785,0.422 -1.969,0.422l-1.406,0c-0.504,0 -1.254,0.018 -2.25,0.053c-0.996,0.035 -1.746,0.053 -2.25,0.053l-0.492,0c-0.187,0 -0.483,0.006 -0.888,0.018c-0.404,0.012 -0.718,0.018 -0.94,0.018c-0.094,-0.094 -0.258,-0.305 -0.492,-0.633Zm13.24,-11.813l0.302,0.62l0.713,0c0.576,0 1.103,-0.042 1.582,-0.125c0.479,-0.084 0.718,-0.218 0.718,-0.403l-1.393,-7.603c-0.13,0 -0.304,0.299 -0.524,0.898c-0.22,0.598 -0.398,1.276 -0.535,2.033l-0.864,4.58Z" style="fill:#16a34a;fill-rule:nonzero;"/><path d="M107.329,18.58c-0.199,1.758 -0.662,3.313 -1.389,4.667c-0.727,1.354 -1.658,2.455 -2.795,3.305c-1.137,0.85 -2.429,1.491 -3.876,1.925c-1.447,0.434 -3.026,0.65 -4.737,0.65c-1.594,0 -3.047,-0.173 -4.359,-0.519c-1.312,-0.346 -2.42,-0.806 -3.322,-1.38c-0.902,-0.574 -1.699,-1.274 -2.391,-2.101c-0.691,-0.826 -1.242,-1.676 -1.652,-2.549c-0.41,-0.873 -0.741,-1.828 -0.993,-2.865c-0.252,-1.037 -0.422,-2.004 -0.51,-2.9c-0.088,-0.896 -0.132,-1.831 -0.132,-2.804l0,-1.547c0.117,-1.711 0.516,-3.249 1.195,-4.614c0.68,-1.365 1.506,-2.467 2.479,-3.305c0.973,-0.838 2.086,-1.535 3.34,-2.092c1.254,-0.557 2.473,-0.943 3.656,-1.16c1.184,-0.217 2.361,-0.325 3.533,-0.325c1.887,0 3.554,0.226 5.001,0.677c1.447,0.451 2.628,1.087 3.542,1.907c0.914,0.82 1.629,1.761 2.145,2.821c0.516,1.061 0.844,2.247 0.984,3.56l0,1.688c0,0.375 -1.289,0.562 -3.867,0.562c-0.609,0 -1.456,-0.012 -2.54,-0.035c-1.084,-0.023 -1.796,-0.035 -2.136,-0.035c-0.059,0 -0.146,0.006 -0.264,0.018c-0.117,0.012 -0.205,0.018 -0.264,0.018c-0.305,0 -0.536,-0.126 -0.694,-0.378c-0.158,-0.252 -0.264,-0.56 -0.316,-0.923c-0.053,-0.363 -0.117,-0.727 -0.193,-1.09c-0.076,-0.363 -0.234,-0.671 -0.475,-0.923c-0.24,-0.252 -0.571,-0.378 -0.993,-0.378c-0.422,0 -0.791,0.07 -1.107,0.211c-0.316,0.141 -0.568,0.36 -0.756,0.659c-0.188,0.299 -0.343,0.601 -0.466,0.905c-0.123,0.305 -0.211,0.7 -0.264,1.187c-0.053,0.486 -0.088,0.896 -0.105,1.23c-0.018,0.334 -0.032,0.779 -0.044,1.336c-0.012,0.557 -0.023,0.964 -0.035,1.222c0,0.141 -0.012,0.398 -0.035,0.773c-0.023,0.375 -0.035,0.68 -0.035,0.914c0,2.918 0.773,4.418 2.32,4.5c0.422,0 0.768,-0.152 1.037,-0.457c0.27,-0.305 0.454,-0.645 0.554,-1.02c0.1,-0.375 0.214,-0.771 0.343,-1.187c0.129,-0.416 0.27,-0.7 0.422,-0.853l9.562,0c0.387,0.035 0.598,0.27 0.633,0.703Z" style="fill:#16a34a;fill-rule:nonzero;"/><path d="M110.634,28.564c-0.258,0 -0.454,-0.026 -0.589,-0.079c-0.135,-0.053 -0.223,-0.114 -0.264,-0.185c-0.041,-0.07 -0.108,-0.205 -0.202,-0.404l0,-24.996c0,-0.258 0.003,-0.445 0.009,-0.562c0.006,-0.117 0.026,-0.255 0.062,-0.413c0.035,-0.158 0.091,-0.27 0.167,-0.334c0.076,-0.064 0.185,-0.12 0.325,-0.167c0.141,-0.047 0.316,-0.07 0.527,-0.07l7.207,0c1.688,0 2.531,0.211 2.531,0.633l0,0.035c-0.047,4.359 -0.07,7.605 -0.07,9.738l4.939,-10.283l3.639,0.018c4.969,0 7.453,0.117 7.453,0.352c0,0.047 -0.023,0.07 -0.07,0.07c-2.273,4.102 -4.582,8.18 -6.926,12.234l0,0.492l0.721,0.457l7.348,12.639c0,0.187 -0.135,0.393 -0.404,0.615l-11.285,0l-5.027,-9.809c-0.07,0.645 -0.123,1.582 -0.158,2.812c-0.035,1.23 -0.064,2.039 -0.088,2.426l0,4.148c-0.082,0.422 -0.785,0.633 -2.109,0.633l-7.734,0Z" style="fill:#16a34a;fill-rule:nonzero;"/></g></svg>